<svg width="112" height="56" viewBox="0 0 112 56" fill="none" xmlns="http://www.w3.org/2000/svg">
<path d="M5.86662 37.4567C5.19815 37.4606 4.52969 37.4644 3.82435 37.45C3.77619 37.4162 3.76139 37.4056 3.74307 37.3998C3.73887 37.3224 3.73099 37.2451 3.73099 37.1677C3.73077 26.31 3.73112 15.4522 3.74972 4.55735C3.7836 4.50872 3.79424 4.49366 3.79994 4.4751C3.94835 4.51841 4.14011 4.51728 4.2378 4.61258C4.70418 5.06754 5.12807 5.56637 5.59841 6.01687C6.64183 7.01629 7.70013 8.00031 8.75986 8.98251C9.4695 9.64022 10.1927 10.2833 10.9086 10.9342C11.9015 11.837 12.8931 12.7411 13.8855 13.6444C14.6256 14.3182 15.3664 14.9913 16.1066 15.6651C17.0989 16.5684 18.0904 17.4727 19.0833 18.3754C19.7992 19.0264 20.5179 19.6743 21.2333 20.3258C22.2501 21.2517 23.2645 22.1805 24.2811 23.1066C25.0046 23.7658 25.731 24.4219 26.4547 25.0809C27.4635 25.9993 28.4703 26.9199 29.4792 27.8382C30.1949 28.4895 30.9116 29.1399 31.63 29.7881C32.3963 30.4795 33.1652 31.1678 33.9987 31.9165C34.051 31.8348 34.0914 31.7371 34.1606 31.6683C37.2147 28.6321 40.2701 25.5971 43.328 22.5647C45.4788 20.4319 47.6334 18.303 49.7864 16.1724C51.8999 14.0809 54.0128 11.9888 56.1274 9.89834C57.8627 8.1828 59.602 6.47129 61.3334 4.75178C61.5021 4.5842 61.6113 4.55493 61.7896 4.7409C62.2342 5.20445 62.6985 5.649 63.1714 6.11756C63.0693 6.22673 62.9907 6.316 62.9067 6.40002C61.5875 7.72023 60.2714 9.04367 58.9469 10.3586C56.7892 12.5007 54.6259 14.6372 52.4648 16.7759C50.3353 18.8833 48.2056 20.9905 46.0761 23.0979C43.9149 25.2366 41.755 27.3764 39.5924 29.5136C38.0304 31.0573 36.4624 32.595 34.9031 34.1414C34.6229 34.4192 34.372 34.7264 34.0809 35.0496C33.6897 34.7062 33.3158 34.3891 32.9545 34.0583C32.3203 33.4779 31.697 32.8855 31.0633 32.3045C30.0658 31.39 29.0637 30.4806 28.0631 29.5695C27.3229 28.8955 26.5819 28.2225 25.8417 27.5485C24.8411 26.6374 23.8417 25.7251 22.8405 24.8147C22.1327 24.1711 21.4215 23.5312 20.7142 22.8871C19.689 21.9535 18.6668 21.0167 17.6418 20.083C16.9263 19.4312 16.2075 18.7831 15.4914 18.132C14.4983 17.2291 13.5065 16.3247 12.5139 15.4212C11.7736 14.7473 11.0327 14.0739 10.2924 13.4C9.29979 12.4964 8.3086 11.5914 7.31452 10.6895C6.91652 10.3284 6.51241 9.97404 6.08375 9.58721C6.02016 9.57257 5.98389 9.58733 5.94763 9.6021C5.94383 9.7461 5.93671 9.89011 5.93669 10.0341C5.93582 19.1356 5.93552 28.237 5.91688 37.3754C5.88305 37.4235 5.8724 37.4384 5.86662 37.4567Z" fill="black"/>
<path d="M82.0129 14.4537C79.993 12.4336 77.9898 10.4302 75.9866 8.42671C75.6524 8.0925 75.6131 8.09326 75.2692 8.43734C74.3817 9.32532 73.4956 10.2148 72.6061 11.1008C67.0986 16.587 61.5919 22.074 56.0817 27.5575C52.8569 30.7668 49.6189 33.9629 46.4092 37.1872C46.09 37.5079 45.8003 37.6307 45.3663 37.6123C44.5837 37.5792 43.7987 37.603 42.9185 37.603C43.0542 37.4536 43.1268 37.3666 43.2066 37.2868C45.7514 34.7408 48.2936 32.1922 50.8432 29.6509C56.3208 24.1909 61.8005 18.7331 67.2829 13.278C69.8931 10.6808 72.5106 8.09088 75.127 5.49998C75.5986 5.03298 75.7337 5.15564 76.0701 5.49345C77.2148 6.64274 78.3611 7.79046 79.5105 8.93508C84.4234 13.8276 89.3369 18.7194 94.2515 23.6102C98.4494 27.7878 102.646 31.9664 106.852 36.1362C107.27 36.551 107.748 36.9062 108.195 37.2921C108.276 37.3619 108.343 37.4468 108.459 37.5693C108.32 37.585 108.241 37.6016 108.161 37.6018C107.372 37.6037 106.582 37.5782 105.795 37.613C105.378 37.6315 105.089 37.4691 104.817 37.1936C104.233 36.6 103.64 36.0139 103.051 35.4247C98.8558 31.2294 94.6647 27.03 90.464 22.8402C87.6596 20.0432 84.8415 17.2599 82.0129 14.4537Z" fill="#C44049"/>
<path d="M3.93339 44.9418C4.0625 44.9396 4.19851 44.9632 4.31956 44.9308C4.91486 44.7716 5.27391 45.1188 5.66925 45.4805C6.3379 46.0922 7.05423 46.6515 7.74437 47.2401C8.14513 47.5819 8.53288 47.9389 8.92871 48.2865C9.04334 48.3872 9.16567 48.4791 9.30386 48.5907C10.0215 47.9606 10.7408 47.3253 11.4644 46.6949C12.1086 46.1337 12.7532 45.5728 13.4093 45.0257C13.4977 44.9519 13.653 44.9437 13.7796 44.9338C13.967 44.9191 14.1664 44.9679 14.3428 44.9216C14.6482 44.8414 14.7373 44.9629 14.737 45.2371C14.7356 46.5035 14.7364 47.7699 14.7364 49.0363C14.7364 50.3027 14.7307 51.5691 14.7411 52.8354C14.7432 53.0949 14.6963 53.2107 14.3967 53.2058C13.5308 53.1919 13.5307 53.2058 13.5305 52.3292C13.5302 50.3519 13.5298 48.3745 13.5269 46.3454C13.4815 46.3062 13.4387 46.3188 13.3959 46.3314C12.4573 47.152 11.5213 47.9757 10.5788 48.7919C10.2086 49.1124 9.83188 49.4271 9.43909 49.7188C9.3609 49.7769 9.15395 49.7685 9.07763 49.705C8.52277 49.2438 7.99101 48.7549 7.44255 48.2858C6.75499 47.6976 6.05806 47.1204 5.36646 46.537C5.29912 46.4802 5.24077 46.4127 5.15084 46.3207C5.08709 46.3061 5.05076 46.3209 5.01443 46.3357C5.01064 48.4715 5.00671 50.6073 5.00315 52.7431C5.00239 53.1981 5.00301 53.1982 4.55895 53.1981C4.3708 53.1981 4.18265 53.1976 3.95744 53.1803C3.90896 53.1486 3.89431 53.1386 3.87644 53.1333C3.87226 51.4947 3.867 49.8561 3.86427 48.2174C3.86253 47.1654 3.86452 46.1133 3.88319 45.0242C3.91717 44.9756 3.92779 44.9605 3.93339 44.9418Z" fill="black"/>
<path d="M77.8145 46.3357C77.8107 48.4795 77.8068 50.6232 77.8032 52.7669C77.8024 53.2029 77.8029 53.2029 77.3676 53.2031C76.5973 53.2034 76.5973 53.2034 76.5973 52.4354C76.5973 50.0581 76.6004 47.6808 76.5933 45.3036C76.5924 45.0032 76.6523 44.854 76.9994 44.9261C77.1721 44.962 77.3658 44.8826 77.5475 44.8942C77.6768 44.9025 77.8281 44.9443 77.9251 45.0247C79.1701 46.0569 80.4053 47.1009 81.6468 48.1374C82.6862 49.0052 83.7309 49.8667 84.7728 50.7315C85.1676 51.0591 85.5613 51.388 85.9827 51.7457C86.0459 51.7603 86.0819 51.7456 86.1179 51.7309C86.1222 49.7511 86.1264 47.7713 86.1306 45.7915C86.1311 45.5481 86.1312 45.3047 86.1499 45.0243C86.1839 44.9756 86.1945 44.9605 86.2001 44.9419C86.3037 44.9396 86.4074 44.9378 86.511 44.9348C86.7254 44.9286 86.9397 44.9217 87.1832 44.9411C87.2236 44.9829 87.2385 44.9939 87.257 45C87.2612 46.8529 87.266 48.7059 87.2695 50.5588C87.271 51.3356 87.2635 52.1126 87.2737 52.8893C87.2767 53.1125 87.2101 53.1728 86.9787 53.2098C86.3493 53.3105 85.9329 52.9846 85.4973 52.6134C84.5015 51.765 83.4803 50.9464 82.474 50.1102C81.76 49.517 81.0564 48.9113 80.3426 48.3179C79.605 47.7048 78.8605 47.1001 78.1199 46.4906C78.0689 46.4486 78.0254 46.3974 77.9509 46.3209C77.8871 46.3061 77.8508 46.3209 77.8145 46.3357Z" fill="black"/>
<path d="M61.3951 46.8011C61.2922 46.6255 61.1934 46.4743 61.0844 46.3075C60.2524 47.6539 59.4377 48.9627 58.6332 50.2777C58.0867 51.171 57.5473 52.0688 57.0221 52.9746C56.914 53.161 56.7892 53.2077 56.5969 53.2008C56.316 53.1907 56.0345 53.1982 55.7532 53.1982C55.737 53.1642 55.7208 53.1302 55.7046 53.0962C55.9377 52.7157 56.1696 52.3344 56.4042 51.9548C57.4677 50.2332 58.531 48.5115 59.5964 46.791C59.9724 46.1836 60.3499 45.5771 60.7348 44.9753C60.9032 44.7121 61.2554 44.7175 61.4247 44.9863C62.2649 46.3202 63.1021 47.656 63.936 48.994C64.7809 50.3498 65.6207 51.709 66.4895 53.1098C66.4001 53.141 66.3196 53.1895 66.2362 53.1951C65.2819 53.2596 65.3019 53.2459 64.7832 52.3743C63.7034 50.5596 62.6002 48.7587 61.5055 46.9529C61.4771 46.9062 61.435 46.8678 61.3951 46.8011Z" fill="black"/>
<path d="M105.203 48.262C105.65 48.9902 106.096 49.692 106.536 50.3979C107.089 51.2865 107.637 52.1785 108.228 53.1345C108.088 53.1575 107.962 53.1717 107.839 53.1992C107.168 53.3499 106.84 52.9985 106.526 52.4461C105.687 50.9695 104.782 49.5303 103.903 48.0762C103.55 47.4936 103.198 46.9109 102.815 46.2774C102.457 46.8715 102.129 47.4211 101.796 47.9681C100.925 49.3995 100.052 50.8298 99.1802 52.2606C99.1127 52.3714 99.0175 52.475 98.9846 52.5955C98.7808 53.3416 98.1851 53.202 97.6508 53.1959C97.4007 53.193 97.4606 53.0338 97.5376 52.9067C97.8854 52.333 98.2415 51.7642 98.5949 51.1939C99.5066 49.7228 100.418 48.2518 101.33 46.781C101.684 46.2107 102.043 45.6435 102.392 45.0703C102.619 44.6974 102.983 44.6747 103.216 45.0461C103.883 46.1063 104.539 47.1732 105.203 48.262Z" fill="black"/>
<path d="M41.2675 52.3854C41.3708 52.4114 41.474 52.4598 41.5773 52.4601C43.1308 52.465 44.6844 52.4647 46.2379 52.4609C46.3427 52.4607 46.4638 52.3793 46.5492 52.4111C46.8145 52.51 46.7127 52.7591 46.7314 52.9574C46.7496 53.1488 46.6567 53.2063 46.4749 53.2053C45.4873 53.2 44.4997 53.2028 43.5121 53.2028C42.4579 53.2028 41.4036 53.1939 40.3496 53.2088C40.0713 53.2127 39.9901 53.1307 39.9912 52.8512C40.0014 50.2546 39.9977 47.6579 40.0163 45.0243C40.0503 44.9758 40.0609 44.9607 40.0665 44.9421C40.4069 44.9329 40.7474 44.9237 41.1165 44.9406C41.1564 44.9828 41.1713 44.9938 41.1899 44.9999C41.1942 46.8811 41.1986 48.7623 41.2025 50.6436C41.2036 51.1859 41.2033 51.7282 41.204 52.3196C41.2255 52.3743 41.2465 52.3798 41.2675 52.3854Z" fill="black"/>
<path d="M26.7999 44.9419C26.8664 44.9278 26.9329 44.9017 26.9993 44.9019C27.2166 44.9024 27.437 44.9381 27.6503 44.9121C27.8779 44.8845 28.0006 44.9356 28.0026 45.178C28.0031 45.2335 28.0027 45.2891 28.0027 45.3446C28.0027 47.809 28.0028 50.2735 28.0026 52.738C28.0026 53.2027 28.0021 53.2027 27.5525 53.2028C26.7305 53.203 26.7304 53.203 26.7305 52.3881C26.7307 49.9458 26.7311 47.5036 26.7497 45.0243C26.7837 44.9756 26.7943 44.9605 26.7999 44.9419Z" fill="black"/>
<path d="M5.03516 46.3356C5.05093 46.3207 5.08726 46.3059 5.13069 46.3111C5.11043 46.3327 5.08307 46.3342 5.03516 46.3356Z" fill="#202020"/>
<path d="M13.4165 46.3329C13.4388 46.3189 13.4816 46.3063 13.5218 46.3147C13.4919 46.3354 13.4644 46.3349 13.4165 46.3329Z" fill="#202020"/>
<path d="M77.835 46.3357C77.8507 46.3207 77.887 46.3059 77.9305 46.3111C77.9102 46.3327 77.8829 46.3343 77.835 46.3357Z" fill="#202020"/>
<path d="M86.0975 51.7305C86.0818 51.7454 86.0458 51.7601 86.0029 51.755C86.0231 51.7335 86.0501 51.7318 86.0975 51.7305Z" fill="#202020"/>
<path d="M5.96826 9.60267C5.98401 9.58773 6.02027 9.57297 6.06362 9.57824C6.04339 9.59979 6.01608 9.60131 5.96826 9.60267Z" fill="#202020"/>
<path d="M41.264 52.3721C41.2469 52.3796 41.2259 52.3741 41.2095 52.3503C41.2339 52.3334 41.2492 52.3423 41.264 52.3721Z" fill="#202020"/>
<path d="M3.87256 53.1516C3.89433 53.1387 3.90897 53.1487 3.9267 53.1753C3.91155 53.1814 3.89011 53.1756 3.87256 53.1516Z" fill="#F0F0F0"/>
<path d="M26.7812 44.9385C26.7944 44.9604 26.7838 44.9755 26.7556 44.9934C26.7494 44.9781 26.7559 44.9567 26.7812 44.9385Z" fill="#F0F0F0"/>
<path d="M87.2605 44.9811C87.2382 44.9937 87.2233 44.9827 87.2061 44.954C87.2215 44.9483 87.2429 44.9553 87.2605 44.9811Z" fill="#F1F1F1"/>
<path d="M86.1811 44.9385C86.1943 44.9603 86.1836 44.9754 86.1554 44.9933C86.1494 44.9781 86.1558 44.9567 86.1811 44.9385Z" fill="#F0F0F0"/>
<path d="M41.1941 44.9813C41.1717 44.9939 41.1568 44.9829 41.1396 44.954C41.1551 44.9483 41.1765 44.9554 41.1941 44.9813Z" fill="#F1F1F1"/>
<path d="M40.0477 44.938C40.061 44.961 40.0504 44.976 40.0222 44.9938C40.016 44.9779 40.0224 44.9557 40.0477 44.938Z" fill="#F0F0F0"/>
<path d="M3.91449 44.9385C3.92766 44.9603 3.91705 44.9755 3.88885 44.9933C3.88276 44.9781 3.88924 44.9567 3.91449 44.9385Z" fill="#F0F0F0"/>
<path d="M5.8853 37.4606C5.87242 37.4385 5.88308 37.4237 5.91108 37.4062C5.91702 37.4216 5.91049 37.443 5.8853 37.4606Z" fill="#F0F0F0"/>
<path d="M3.73926 37.4185C3.76139 37.4056 3.77619 37.4163 3.79357 37.4443C3.77825 37.4502 3.75684 37.4437 3.73926 37.4185Z" fill="#F0F0F0"/>
<path d="M3.78116 4.47119C3.79437 4.49409 3.78373 4.50916 3.75559 4.52699C3.74945 4.51112 3.75585 4.48899 3.78116 4.47119Z" fill="#F0F0F0"/>
</svg>
